# xmcd
#
# Track frame offsets:
#	150
#	13588
#	32698
#	51470
#	63100
#	76585
#	90245
#	103893
#	115503
#	137190
#
# Disc length: 2003
#
# Revision: 2
# Processed by: cddbd v1.5.1PL0 Copyright (c) Steve Scherf et al.
# Submitted via: CD-DA_X-Tractor v0.24
# Normalized: r0:TDELIM( - ),TSWAP
#
DISCID=7207d10a
DTITLE=Various Artist - Rhythm Makers - The Soul Of Rhythm and Blues
DYEAR=1900
DGENRE=
TTITLE0=Sam and Dave - Soul Man
TTITLE1=Edwin Starr - 25 Miles
TTITLE2=Freda Payne - Band Of Gold
TTITLE3=Clarence Carter - Slip Away
TTITLE4=Eddie Floyd - Knock On Wood
TTITLE5=The Commodores - I Know I'm Losing You
TTITLE6=The Chi-Lites - Oh Girl
TTITLE7=Jean Knight - Mr. Big Stuff (Live)
TTITLE8=Harold Melvin and The Blue Notes - The Love I Lost
TTITLE9=Percy Sledge - When A Man Loves A Woman
EXTD=
EXTT0=
EXTT1=
EXTT2=
EXTT3=
EXTT4=
EXTT5=
EXTT6=
EXTT7=
EXTT8=
EXTT9=
PLAYORDER=
